<svg width="216" height="216" viewBox="0 0 216 216" fill="none" xmlns="http://www.w3.org/2000/svg">
<g filter="url(#filter0_d)">
<rect x="8" y="6" width="200" height="200" rx="12" fill="white"/>
<path d="M78.9316 33.7511L104.653 111.835L104.664 111.831L104.989 112.776C106.222 112.267 107.557 111.959 108.971 111.938C110.485 111.913 111.946 112.212 113.295 112.762L113.606 111.902L113.656 111.92L138.462 33.7511H136.939L112.638 110.246L127.783 33.7511H126.305L111.475 108.447L118.576 33.7511H117.118L109.87 110.561C109.765 110.554 109.665 110.538 109.56 110.534L109.715 110.532L110.172 33.7511H108.713L108.258 110.554H108.295C108.231 110.559 108.169 110.57 108.105 110.575L101.751 33.7511H100.287L106.489 109.162L90.2226 33.7511H88.7361L104.58 107.205L80.4638 33.7511H78.9316Z" fill="#C7C6C7"/>
<path d="M116.895 185.314V139.077H100.503V185.314L108.698 176.88L116.895 185.314Z" fill="#49AFD0"/>
<path d="M161.706 28.6L142.202 33.7511L113.068 112.687H105.039L76.0257 33.3309L56.3984 28.6L94.0089 130.807L124.477 130.837L161.706 28.6Z" fill="#626062"/>
</g>
<defs>
<filter id="filter0_d" x="0" y="0" width="216" height="216" filterUnits="userSpaceOnUse" color-interpolation-filters="sRGB">
<feFlood flood-opacity="0" result="BackgroundImageFix"/>
<feColorMatrix in="SourceAlpha" type="matrix" values="0 0 0 0 0 0 0 0 0 0 0 0 0 0 0 0 0 0 127 0" result="hardAlpha"/>
<feOffset dy="2"/>
<feGaussianBlur stdDeviation="4"/>
<feColorMatrix type="matrix" values="0 0 0 0 0 0 0 0 0 0 0 0 0 0 0 0 0 0 0.25 0"/>
<feBlend mode="normal" in2="BackgroundImageFix" result="effect1_dropShadow"/>
<feBlend mode="normal" in="SourceGraphic" in2="effect1_dropShadow" result="shape"/>
</filter>
</defs>
</svg>
